HIERARCHY
ROOT Joint1
{
	OFFSET 0.000000 0.000000 0.000000
	CHANNELS 6 Xposition Yposition Zposition Xrotation Yrotation Zrotation
	JOINT Joint2
	{
		OFFSET -0.000000 0.000000 1.456275
		CHANNELS 6 Xposition Yposition Zposition Xrotation Yrotation Zrotation
		JOINT Joint3
		{
			OFFSET -0.000000 0.000002 1.471446
			CHANNELS 6 Xposition Yposition Zposition Xrotation Yrotation Zrotation
			JOINT Joint4
			{
				OFFSET 0.625745 0.000000 0.917755
				CHANNELS 6 Xposition Yposition Zposition Xrotation Yrotation Zrotation
				JOINT Joint5
				{
					OFFSET -0.629534 0.000001 0.940221
					CHANNELS 6 Xposition Yposition Zposition Xrotation Yrotation Zrotation
					JOINT Joint6
					{
						OFFSET -0.000001 0.113772 1.960660
						CHANNELS 6 Xposition Yposition Zposition Xrotation Yrotation Zrotation
						JOINT Joint7
						{
							OFFSET -0.669733 -0.113771 0.388340
							CHANNELS 6 Xposition Yposition Zposition Xrotation Yrotation Zrotation
							End Site
							{
								OFFSET 0.005509 0.005509 0.438980
							}
						}
					}
				}
			}
		}
	}
}
MOTION
Frames: 19
Frame Time: 0.041667
0.000000 0.000000 0.000000 -0.000000 1.019410 -51.144163 -0.000000 -0.000000 1.456275 -0.000004 -39.916862 0.000001 -0.000000 0.000002 1.471446 0.000001 -1.133456 38.034615 0.625745 0.000000 0.917755 0.000009 124.507628 -0.000004 -0.629534 0.000001 0.940221 0.000002 1.709738 -16.380677 -0.000001 0.113772 1.960661 -88.303875 104.022729 0.000009 -0.669734 -0.113771 0.388340 0.121910 3.141355 80.580919 
0.000000 0.000000 0.000000 -0.000000 1.019410 -52.857365 -0.000000 0.000000 1.456275 0.000002 -39.747091 -0.000002 -0.000000 0.000002 1.471446 -0.000003 -1.133455 39.310068 0.625744 0.000000 0.917754 0.000006 124.155286 -0.000004 -0.629534 0.000001 0.940221 -0.000001 1.709736 -16.928842 -0.000001 0.113773 1.960660 -88.303882 104.493240 0.000005 -0.669733 -0.113771 0.388340 0.140318 3.114787 78.759547 
0.000000 0.000000 0.000000 -0.000000 1.019410 -54.434190 -0.000000 -0.000000 1.456275 -0.000001 -39.590836 -0.000000 -0.000000 0.000002 1.471446 -0.000001 -1.133456 40.483996 0.625745 0.000001 0.917755 0.000005 123.831002 -0.000005 -0.629534 0.000001 0.940221 0.000001 1.709737 -17.433365 -0.000002 0.113772 1.960661 -88.303875 104.926302 0.000004 -0.669733 -0.113771 0.388340 0.156503 3.089827 77.083213 
0.000000 0.000000 0.000000 -0.000000 1.019410 -55.742919 -0.000000 0.000000 1.456275 0.000000 -39.461152 0.000001 -0.000000 0.000002 1.471446 0.000003 -1.133454 41.458323 0.625744 0.000000 0.917755 0.000006 123.561824 -0.000005 -0.629534 0.000001 0.940221 0.000004 1.709736 -17.852117 -0.000001 0.113772 1.960661 -88.303875 105.285734 0.000003 -0.669733 -0.113771 0.388340 0.169369 3.068758 75.691924 
0.000000 0.000000 0.000000 -0.000000 1.019410 -56.891729 -0.000000 -0.000000 1.456275 -0.000001 -39.347309 -0.000001 -0.000001 0.000002 1.471446 -0.000001 -1.133456 42.313592 0.625745 0.000001 0.917754 0.000002 123.325568 0.000001 -0.629534 0.000001 0.940220 -0.000002 1.709735 -18.219688 -0.000000 0.113772 1.960660 -88.303868 105.601220 0.000004 -0.669733 -0.113771 0.388340 0.180246 3.050017 74.470686 
0.000000 0.000000 0.000000 -0.000000 1.019410 -58.048740 -0.000000 -0.000000 1.456275 0.000001 -39.232654 0.000000 -0.000000 0.000002 1.471446 -0.000003 -1.133455 43.174975 0.625744 0.000000 0.917754 0.000005 123.087631 -0.000003 -0.629534 0.000001 0.940221 0.000001 1.709736 -18.589888 -0.000001 0.113772 1.960660 -88.303875 105.918995 0.000010 -0.669733 -0.113771 0.388341 0.190790 3.030909 73.240733 
0.000000 0.000000 0.000000 -0.000000 1.019410 -59.382102 -0.000000 -0.000000 1.456275 -0.000004 -39.100531 -0.000000 -0.000000 0.000002 1.471446 -0.000003 -1.133455 44.167637 0.625744 0.000001 0.917755 0.000003 122.813399 0.000003 -0.629534 0.000001 0.940221 -0.000001 1.709736 -19.016514 -0.000001 0.113772 1.960661 -88.303875 106.285182 -0.000005 -0.669733 -0.113771 0.388339 0.202427 3.008610 71.823366 
0.000000 0.000000 0.000000 -0.000000 1.019410 -60.993589 -0.000000 -0.000000 1.456275 -0.000000 -38.940838 -0.000000 -0.000000 0.000002 1.471446 -0.000001 -1.133456 45.367360 0.625745 0.000001 0.917755 0.000007 122.481985 0.000001 -0.629534 0.000001 0.940221 -0.000001 1.709735 -19.532128 -0.000001 0.113772 1.960661 -88.303862 106.727757 -0.000001 -0.669734 -0.113771 0.388340 0.215751 2.981292 70.110389 
0.000000 0.000000 0.000000 -0.000000 1.019410 -62.719558 -0.000000 0.000000 1.456275 -0.000001 -38.769813 0.000003 -0.000000 0.000002 1.471446 -0.000003 -1.133459 46.652316 0.625745 0.000000 0.917755 0.000006 122.127020 0.000000 -0.629533 0.000001 0.940221 -0.000000 1.709736 -20.084376 -0.000001 0.113772 1.960661 -88.303868 107.201772 0.000003 -0.669733 -0.113771 0.388340 0.229104 2.951602 68.275773 
0.000000 0.000000 0.000000 -0.000000 1.019410 -64.330014 -0.000000 0.000000 1.456275 -0.000001 -38.610219 -0.000002 -0.000000 0.000002 1.471446 -0.000002 -1.133458 47.851277 0.625745 0.000000 0.917755 0.000002 121.795810 0.000000 -0.629534 0.000001 0.940221 0.000001 1.709738 -20.599663 -0.000001 0.113772 1.960660 -88.303868 107.644068 0.000006 -0.669733 -0.113771 0.388340 0.240705 2.923530 66.563991 
0.000000 0.000000 0.000000 -0.000000 1.019410 -65.661545 -0.000000 0.000000 1.456275 -0.000000 -38.478270 -0.000002 -0.000001 0.000002 1.471445 -0.000005 -1.133457 48.842584 0.625745 0.000000 0.917755 0.000004 121.521961 -0.000002 -0.629533 0.000001 0.940221 -0.000000 1.709736 -21.025699 -0.000002 0.113772 1.960660 -88.303875 108.009763 0.000001 -0.669733 -0.113771 0.388341 0.249655 2.900067 65.148721 
0.000000 0.000000 0.000000 -0.000000 1.019410 -66.817050 -0.000000 0.000000 1.456275 0.000001 -38.363769 -0.000001 -0.000000 0.000002 1.471446 -0.000002 -1.133457 49.702836 0.625745 0.000000 0.917755 0.000003 121.284325 0.000000 -0.629534 0.000001 0.940220 0.000002 1.709737 -21.395421 -0.000001 0.113772 1.960660 -88.303868 108.327094 0.000013 -0.669733 -0.113771 0.388340 0.256949 2.879530 63.920571 
0.000000 0.000000 0.000000 -0.000000 1.019410 -67.966010 -0.000000 0.000000 1.456275 0.000002 -38.249917 -0.000001 -0.000000 0.000002 1.471446 -0.000004 -1.133458 50.558225 0.625745 0.000000 0.917755 0.000005 121.048028 -0.000005 -0.629534 0.000001 0.940221 -0.000004 1.709737 -21.763047 -0.000000 0.113772 1.960661 -88.303868 108.642649 0.000005 -0.669733 -0.113771 0.388340 0.263769 2.858963 62.699395 
0.000000 0.000000 0.000000 -0.000000 1.019410 -69.277926 -0.000000 0.000000 1.456275 0.000001 -38.119907 0.000000 -0.000000 0.000002 1.471446 -0.000003 -1.133456 51.534925 0.625745 0.000000 0.917755 0.000011 120.778208 -0.000002 -0.629534 0.000001 0.940221 0.000000 1.709738 -22.182807 -0.000001 0.113772 1.960660 -88.303862 109.002955 0.000001 -0.669733 -0.113771 0.388339 0.271006 2.835305 61.305066 
0.000000 0.000000 0.000000 -0.000000 1.019410 -70.860774 -0.000000 0.000000 1.456275 0.000000 -37.963059 0.000001 -0.000000 0.000002 1.471446 -0.000003 -1.133457 52.713330 0.625745 0.000000 0.917755 0.000010 120.452681 0.000000 -0.629533 0.000001 0.940221 0.000001 1.709736 -22.689260 -0.000001 0.113772 1.960660 -88.303882 109.437669 0.000005 -0.669733 -0.113771 0.388340 0.278978 2.806537 59.622811 
0.000000 0.000000 0.000000 -0.000000 1.019410 -72.576572 -0.000000 0.000000 1.456275 0.000002 -37.793035 -0.000001 -0.000000 0.000002 1.471446 -0.000001 -1.133456 53.990716 0.625745 0.000000 0.917755 0.000001 120.099806 -0.000003 -0.629534 0.000001 0.940221 -0.000000 1.709738 -23.238254 -0.000001 0.113772 1.960661 -88.303868 109.908891 0.000007 -0.669733 -0.113771 0.388340 0.286658 2.775106 57.799315 
0.000000 0.000000 0.000000 -0.000000 1.019410 -74.225831 -0.000000 0.000000 1.456275 -0.000000 -37.629599 0.000001 -0.000000 0.000002 1.471446 -0.000001 -1.133455 55.218565 0.625745 0.000000 0.917755 0.000006 119.760619 -0.000003 -0.629534 0.000001 0.940221 -0.000003 1.709737 -23.765956 -0.000001 0.113772 1.960661 -88.303868 110.361841 0.000006 -0.669733 -0.113771 0.388340 0.293089 2.744677 56.046586 
0.000000 0.000000 0.000000 -0.000000 1.019410 -75.656038 -0.000000 0.000000 1.456275 -0.000000 -37.487876 -0.000000 -0.000000 0.000002 1.471446 -0.000001 -1.133451 56.283337 0.625745 0.000000 0.917755 0.000004 119.466470 -0.000002 -0.629534 0.000001 0.940221 0.000002 1.709737 -24.223570 -0.000001 0.113772 1.960660 -88.303868 110.754639 0.000012 -0.669733 -0.113771 0.388340 0.297911 2.718139 54.526691 
0.000000 0.000000 0.000000 -0.000000 1.019410 -76.902534 -0.000000 0.000000 1.456275 -0.000000 -37.364355 -0.000000 -0.000000 0.000002 1.471446 -0.000001 -1.133450 57.211338 0.625745 0.000000 0.917755 -0.000000 119.210133 -0.000002 -0.629534 0.000001 0.940222 -0.000000 1.709735 -24.622407 -0.000001 0.113772 1.960661 -88.303862 111.096975 0.000010 -0.669733 -0.113771 0.388340 0.301534 2.694916 53.202051 
